<?xml version="1.0" encoding="UTF-8"?>
<svg version="1.1" xmlns="http://www.w3.org/2000/svg" width="314" height="60">
<path d="M0 0 C4.00107462 -0.22400504 7.99968569 -0.38645348 12.00561523 -0.49438477 C13.36498621 -0.53940132 14.7239272 -0.60064542 16.08178711 -0.67895508 C27.34111379 -1.31159444 27.34111379 -1.31159444 31.49560547 1.97314453 C36 7.63740079 36 7.63740079 36 11 C36.58523437 11.27070313 37.17046875 11.54140625 37.7734375 11.8203125 C39.9789107 12.98882637 41.70054646 14.29449135 43.625 15.875 C53.7348432 23.53680353 66.21410064 25.88405373 78.6640625 24.59765625 C92.27991895 22.1582815 102.80855204 15.00513092 111 4 C111.66 2.68 112.32 1.36 113 0 C124.55 0 136.1 0 148 0 C145.29674014 16.21955914 133.31085004 30.89409679 120.25 40.4375 C102.94993617 52.3946492 82.36026352 57.82113391 61.45458984 54.60888672 C45.58488006 51.51907185 33.06994439 44.80250273 21 34 C20.37738281 33.47148438 19.75476563 32.94296875 19.11328125 32.3984375 C10.64734818 24.70213471 3.10378029 13.00220624 0 2 C0 1.34 0 0.68 0 0 Z " fill="#BEBDBD" transform="translate(160,0)"/>
<path d="M0 0 C4.85605919 -0.22359659 9.70908708 -0.38627789 14.5690918 -0.49438477 C16.21936251 -0.53946707 17.8692772 -0.60075755 19.51831055 -0.67895508 C33.24238516 -1.31313914 33.24238516 -1.31313914 37.53808594 1.89624023 C39.29424152 4.18351777 40.65909865 6.45242581 42 9 C49.52549779 17.28876002 60.13092797 23.45390968 71.43359375 24.23828125 C85.76856187 24.63737367 98.5105148 21.47285945 109.51171875 11.7890625 C113.98573558 7.55650829 113.98573558 7.55650829 117.20458984 2.39013672 C119 -0 119 -0 122.00268555 -0.56762695 C123.2019165 -0.54144287 124.40114746 -0.51525879 125.63671875 -0.48828125 C126.93544922 -0.47216797 128.23417969 -0.45605469 129.57226562 -0.43945312 C130.94402699 -0.39767609 132.31577177 -0.35535135 133.6875 -0.3125 C135.07092382 -0.28741745 136.45439077 -0.26460418 137.83789062 -0.24414062 C141.22634764 -0.18510827 144.61263385 -0.10280082 148 0 C145.09023209 15.89103305 132.73947447 30.63916931 120 40 C101.41513413 51.99950317 81.76588907 57.29930756 59.73828125 53.80859375 C39.96937268 49.53256023 20.84734326 37.85465279 9.6328125 20.7890625 C1.63025799 7.11962729 1.63025799 7.11962729 0 0 Z " fill="#BEBDBD" transform="translate(3,0)"/>
</svg>
